<svg xmlns="http://www.w3.org/2000/svg" viewBox="0 0 72 72" width="255" height="255">
	<style>
		tspan { white-space:pre }
		.shp0 { opacity: 0;fill: #000000 } 
		.shp1 { fill: #1da1f2 } 
	</style>
	<g id="bounds">
		<path id="Layer" class="shp0" d="M0 0L72 0L72 72L0 72L0 0Z" />
	</g>
	<g id="icon">
		<path id="Layer" class="shp1" d="M67.81 16.14C65.46 17.18 62.94 17.88 60.29 18.2C63 16.58 65.07 14.01 66.05 10.96C63.52 12.46 60.72 13.55 57.74 14.13C55.35 11.59 51.95 10 48.18 10C40.95 10 35.09 15.86 35.09 23.09C35.09 24.12 35.21 25.11 35.43 26.07C24.54 25.53 14.9 20.32 8.44 12.39C7.32 14.33 6.67 16.58 6.67 18.98C6.67 23.52 8.98 27.53 12.49 29.87C10.35 29.8 8.33 29.22 6.56 28.24C6.56 28.29 6.56 28.35 6.56 28.4C6.56 34.74 11.07 40.04 17.07 41.24C15.96 41.54 14.81 41.7 13.62 41.7C12.77 41.7 11.95 41.62 11.15 41.46C12.82 46.66 17.65 50.45 23.38 50.55C18.9 54.07 13.25 56.16 7.12 56.16C6.07 56.16 5.03 56.1 4 55.98C9.79 59.69 16.68 61.86 24.07 61.86C48.15 61.86 61.32 41.91 61.32 24.61C61.32 24.04 61.3 23.47 61.28 22.91C63.84 21.07 66.06 18.77 67.81 16.14Z" />
		<path id="Shape 1" class="shp1" d="M72 -18" />
	</g>
</svg>