<svg width="21" height="21" viewBox="0 0 21 21" fill="none" xmlns="http://www.w3.org/2000/svg">
<path d="M15 4H6C5.44772 4 5 4.44772 5 5V15.9731C5 16.5358 5.46404 16.9877 6.0265 16.9728H15C15.5418 16.9584 16 16.5151 16 15.9731C16 15.4312 16 5 16 5C16 4.44772 15.5523 4 15 4Z" fill="#589E65"/>
<path d="M10 8.5V4H14V8.5L12 7L10 8.5Z" fill="black"/>
<path d="M10.5 10.5V20M13.5 14L10.5 15.5M7 10.5L10.5 12M2 20H19C19.5523 20 20 19.5523 20 19V2C20 1.44772 19.5523 1 19 1H2C1.44772 1 1 1.44771 1 2V19C1 19.5523 1.44771 20 2 20ZM6 4H15C15.5523 4 16 4.44772 16 5C16 5 16 15.4312 16 15.9731C16 16.5151 15.5418 16.9584 15 16.9728H6.0265C5.46404 16.9877 5 16.5358 5 15.9731V5C5 4.44772 5.44772 4 6 4ZM10 4V8.5L12 7L14 8.5V4H10Z" stroke="black" stroke-linecap="round"/>
</svg>
