<svg width="20" height="20" viewBox="0 0 20 20" fill="none" xmlns="http://www.w3.org/2000/svg">
<path d="M18.5 0.5H1.5C0.947715 0.5 0.5 0.947715 0.5 1.5V18.5C0.5 19.0523 0.947715 19.5 1.5 19.5H18.5C19.0523 19.5 19.5 19.0523 19.5 18.5V1.5C19.5 0.947715 19.0523 0.5 18.5 0.5Z" fill="white"/>
<path d="M14.5 3.5H5.5C4.94772 3.5 4.5 3.94772 4.5 4.5V15.4731C4.5 16.0358 4.96404 16.4877 5.5265 16.4728H10H14.5C15.0418 16.4584 15.5 16.0151 15.5 15.4731C15.5 14.9312 15.5 4.5 15.5 4.5C15.5 3.94772 15.0523 3.5 14.5 3.5Z" fill="#589E65"/>
<path d="M9.5 8V3.5H13.5V8L11.5 6.5L9.5 8Z" fill="black"/>
<path d="M5.5 3.5H14.5M5.5 3.5C4.94772 3.5 4.5 3.94772 4.5 4.5V15.4731C4.5 16.0358 4.96404 16.4877 5.5265 16.4728H10M5.5 3.5H9.5M14.5 3.5C15.0523 3.5 15.5 3.94772 15.5 4.5M14.5 3.5H13.5M15.5 4.5C15.5 4.5 15.5 14.9312 15.5 15.4731M15.5 4.5V15.4731M15.5 15.4731C15.5 16.0151 15.0418 16.4584 14.5 16.4728H10M10 10V16.4728M10 19.5V16.4728M13 13.5L10 15M6.5 10L10 11.5M9.5 3.5V8L11.5 6.5L13.5 8V3.5M9.5 3.5H13.5M1.5 0.5H18.5C19.0523 0.5 19.5 0.947715 19.5 1.5V18.5C19.5 19.0523 19.0523 19.5 18.5 19.5H1.5C0.947715 19.5 0.5 19.0523 0.5 18.5V1.5C0.5 0.947715 0.947715 0.5 1.5 0.5Z" stroke="black" stroke-linecap="round"/>
</svg>
